<?xml version="1.0" standalone="no"?>
<!DOCTYPE svg PUBLIC "-//W3C//DTD SVG 20010904//EN"
 "http://www.w3.org/TR/2001/REC-SVG-20010904/DTD/svg10.dtd">
<svg version="1.0" xmlns="http://www.w3.org/2000/svg"
 width="564.000000pt" height="382.000000pt" viewBox="0 0 564.000000 382.000000"
 preserveAspectRatio="xMidYMid meet">

<g transform="translate(0.000000,382.000000) scale(0.100000,-0.100000)"
fill="#000000" stroke="none">
<path d="M4225 2484 c-11 -2 -58 -11 -105 -20 -47 -9 -111 -28 -142 -42 l-58
-25 -21 27 c-29 37 -70 56 -122 56 -43 0 -149 -31 -219 -65 l-37 -18 -25 30
c-54 64 -144 69 -259 15 l-67 -31 -37 24 c-64 44 -147 29 -271 -49 -23 -14
-48 -26 -55 -26 -8 0 -30 -11 -50 -24 l-35 -24 -43 45 c-24 24 -73 58 -109 76
-62 30 -71 32 -180 32 l-115 0 -95 -46 c-52 -25 -116 -62 -142 -82 l-48 -37
-69 69 c-99 99 -126 111 -259 111 -135 0 -172 -11 -355 -103 -164 -83 -219
-123 -247 -178 -35 -67 -19 -167 36 -230 10 -11 17 -85 26 -279 13 -292 15
-299 87 -347 50 -34 94 -29 212 22 91 39 105 43 119 30 27 -24 87 -45 133 -45
50 0 124 40 211 114 l53 46 28 -30 c35 -37 142 -93 219 -115 45 -13 85 -16
175 -13 147 6 207 27 291 104 l59 55 21 -48 c38 -86 88 -123 167 -123 32 0 62
8 90 24 23 13 58 29 77 36 33 11 39 9 67 -14 17 -14 42 -29 55 -32 42 -11 117
1 175 28 54 25 56 25 68 6 19 -31 73 -58 117 -58 31 0 55 9 93 34 27 19 70 37
93 41 80 14 163 68 194 127 8 16 15 60 15 105 l2 78 9 -110 c11 -134 21 -175
54 -215 62 -73 131 -79 249 -20 166 83 215 140 214 247 0 32 -6 117 -13 188
-8 72 -10 131 -5 133 28 11 65 52 85 96 22 46 24 65 24 197 0 135 -2 148 -23
180 -12 18 -38 44 -56 56 -30 20 -45 23 -135 22 -56 -1 -110 -3 -121 -5z m194
-241 c-1 -158 -3 -160 -91 -178 l-28 -5 0 -95 0 -95 -96 0 -96 0 7 -92 c3 -51
11 -138 16 -192 5 -61 6 -103 0 -109 -18 -18 -29 30 -40 178 -15 196 -31 329
-42 346 -6 11 -17 9 -55 -10 l-48 -23 -17 23 c-39 52 -72 206 -50 233 7 8 27
18 44 22 18 3 57 19 88 35 69 34 227 67 332 68 l77 1 -1 -107z m-2631 58 c33
-27 59 -59 78 -96 26 -54 27 -60 16 -118 -14 -76 -65 -182 -98 -203 -20 -14
-60 -16 -259 -15 l-236 2 7 -179 c8 -194 3 -242 -21 -222 -8 7 -12 16 -9 21 3
5 0 125 -7 265 l-12 256 -34 40 c-62 75 -44 98 158 199 150 76 191 88 286 89
80 0 82 -1 131 -39z m1613 -131 c3 -91 10 -198 14 -237 l8 -73 -282 0 -281 0
0 -49 c0 -67 19 -248 30 -290 11 -40 7 -49 -13 -32 -21 17 -35 104 -52 321
-16 202 -28 287 -44 318 -16 30 35 76 151 136 59 31 112 56 118 56 6 0 10 -57
10 -160 0 -177 0 -176 62 -144 l31 16 -6 99 -6 99 42 27 c59 38 168 83 192 80
19 -2 20 -12 26 -167z m384 133 c-9 -46 -8 -282 1 -375 l7 -68 -112 0 -111 0
0 -184 c0 -151 -3 -186 -15 -196 -13 -11 -15 18 -16 251 0 145 -4 315 -7 377
-7 105 -6 115 13 131 37 34 184 99 229 100 16 1 17 -4 11 -36z m-1287 7 c24
-11 55 -29 70 -40 93 -74 166 -257 147 -370 l-7 -40 -99 0 -99 0 -19 -39 c-28
-54 -81 -85 -148 -86 -45 0 -56 4 -80 29 -22 23 -24 27 -8 21 32 -13 83 -18
110 -11 43 11 91 62 105 111 24 87 -4 157 -70 175 -48 13 -71 7 -122 -29 -45
-31 -68 -75 -68 -130 l0 -41 -110 0 c-109 0 -110 0 -110 -24 0 -38 37 -146 74
-214 30 -56 32 -62 13 -49 -12 7 -39 47 -59 88 -101 201 -88 360 40 501 127
137 320 203 440 148z m1439 -502 c-3 -8 -6 -5 -6 6 -1 11 2 17 5 13 3 -3 4
-12 1 -19z m-2119 -62 c50 -25 84 -56 63 -56 -20 0 -85 37 -105 59 -25 27 -16
26 42 -3z m1382 9 c6 -8 16 -63 21 -122 5 -59 12 -116 15 -125 3 -12 0 -18
-10 -18 -20 0 -32 51 -41 163 -3 49 -9 95 -12 103 -7 18 11 18 27 -1z m-1595
-163 c22 -42 41 -81 43 -85 3 -5 -6 -4 -18 3 -12 7 -37 44 -56 86 -39 85 -39
85 -21 78 7 -2 31 -39 52 -82z"/>
<path d="M1537 2108 c-25 -19 -47 -82 -47 -133 l0 -46 29 15 c57 30 124 136
105 168 -8 12 -68 10 -87 -4z"/>
<path d="M4598 2224 c-5 -182 -17 -225 -83 -282 l-37 -34 11 -87 c16 -127 14
-286 -4 -320 -23 -45 -99 -106 -195 -155 -80 -42 -95 -46 -162 -47 -70 -1 -72
-1 -43 -14 17 -8 58 -14 91 -15 53 0 74 6 143 40 97 49 185 126 202 177 11 36
7 260 -7 338 -4 25 3 40 40 88 24 32 51 74 58 95 16 48 18 329 2 356 -9 15
-12 -16 -16 -140z"/>
<path d="M3900 1444 c-33 -35 -67 -51 -140 -68 -34 -8 -69 -21 -78 -29 -35
-31 -83 -47 -139 -48 l-58 -1 35 -15 c49 -21 131 -12 180 21 21 14 60 31 87
37 59 15 142 55 149 73 3 7 1 22 -4 35 l-8 22 -24 -27z"/>
<path d="M1881 1413 c-87 -72 -138 -93 -223 -93 -59 -1 -69 -3 -54 -12 11 -6
49 -13 86 -16 77 -5 124 11 203 72 27 21 58 41 68 45 19 6 19 7 -3 28 l-23 21
-54 -45z"/>
<path d="M2659 1414 c-35 -38 -130 -81 -212 -95 -87 -14 -235 -7 -296 15 -66
24 -61 11 6 -14 175 -67 414 -43 527 53 21 18 26 30 21 46 -8 27 -16 27 -46
-5z"/>
<path d="M3026 1340 c-47 -25 -67 -30 -128 -30 -58 0 -70 -3 -60 -12 8 -9 42
-13 95 -13 66 1 93 6 138 26 l56 25 -23 17 c-21 16 -25 15 -78 -13z"/>
<path d="M1420 1325 c-58 -24 -102 -35 -140 -36 -55 -1 -55 -1 -25 -14 46 -21
98 -18 178 11 39 15 89 29 110 32 l39 4 -29 19 c-15 10 -32 19 -38 19 -5 -1
-48 -16 -95 -35z"/>
<path d="M3355 1339 c-28 -13 -63 -19 -120 -19 -74 -1 -78 -2 -55 -15 34 -20
142 -19 207 2 50 16 52 18 36 35 -19 21 -17 21 -68 -3z"/>
</g>
</svg>
